<svg xmlns="http://www.w3.org/2000/svg" fill="none" viewBox="0 0 100 100"><path fill="#5D97D0" fill-rule="evenodd" d="M54.913 1.898c-2.758-2.533-7.077-2.53-9.832.006-9.43 8.683-21.988 13.445-34.99 13.269-3.124-.042-5.913 1.888-6.887 4.765A60.56 60.56 0 0 0 0 39.411c.001 29.055 20.494 53.447 48.219 60.37a7.358 7.358 0 0 0 3.561 0C79.507 92.863 100 68.47 100 39.413a60.556 60.556 0 0 0-3.205-19.483c-.964-2.842-3.7-4.762-6.785-4.762h-.724c-13.323 0-25.41-5.036-34.373-13.27Zm-47.77 37.51a53.826 53.826 0 0 1 2.847-17.31C24.858 22.3 39.218 16.854 50 6.926c10.238 9.405 24.067 15.167 39.286 15.167h.724a53.82 53.82 0 0 1 2.847 17.32c0 25.82-18.21 47.511-42.857 53.661C25.352 86.92 7.143 65.228 7.143 39.408Zm8.33-10.545c12.565-.893 24.577-5.36 34.53-12.827 9.686 7.258 21.575 11.896 34.523 12.815a47.252 47.252 0 0 1 1.188 10.562c0 21.957-15.055 40.516-35.713 46.475-20.66-5.963-35.715-24.523-35.715-46.48v-.005a47.028 47.028 0 0 1 1.188-10.54Z" clip-rule="evenodd"/><path stroke="#fff" stroke-linecap="round" stroke-linejoin="round" stroke-width="6" d="M50.5 38v25M63 50.5H38"/></svg>